<svg width="27" height="38" viewBox="0 0 27 38" fill="none" xmlns="http://www.w3.org/2000/svg">
<path d="M24.7812 4.42786H5.57543V16.6876C6.45967 15.5101 7.73298 14.575 9.39536 13.8824C11.0577 13.1898 12.8793 12.8434 14.86 12.8434C17.5127 12.8434 19.7056 13.3976 21.4388 14.5058C23.2072 15.5794 24.4982 17.0166 25.3117 18.8175C26.1606 20.5837 26.585 22.5577 26.585 24.7396C26.585 28.5145 25.5063 31.5967 23.3487 33.9863C21.1912 36.3759 18.0256 37.5707 13.8519 37.5707C10.1028 37.5707 7.04327 36.5837 4.6735 34.6097C2.30373 32.601 0.977362 29.917 0.694405 26.5577H5.46932C5.85839 28.7049 6.76031 30.3846 8.1751 31.5967C9.62526 32.7742 11.4468 33.3629 13.6397 33.3629C16.3632 33.3629 18.4146 32.5664 19.7941 30.9733C21.1735 29.3803 21.8632 27.285 21.8632 24.6876C21.8632 22.1595 21.1558 20.1854 19.741 18.7655C18.3262 17.3456 16.3278 16.6357 13.7458 16.6357C11.9066 16.6357 10.2973 17.0339 8.91787 17.8305C7.53845 18.5924 6.49504 19.6313 5.78765 20.9473H1.11884V0.220062H24.7812V4.42786Z" fill="black"/>
</svg>
