<svg width="42" height="40" viewBox="0 0 42 40" fill="none" xmlns="http://www.w3.org/2000/svg">
<path d="M0.143555 6.31264V1.85794H8.96476V38.8058H4.7725V6.31264H0.143555Z" fill="black"/>
<path d="M14.9196 19.7525C14.9196 25.9859 15.9215 30.8442 17.9255 34.3275C19.9294 37.8109 23.4004 39.5525 28.3386 39.5525C33.2768 39.5525 36.7479 37.8109 38.7518 34.3275C40.7915 30.8442 41.8113 25.9859 41.8113 19.7525C41.8113 13.5925 40.7915 8.77086 38.7518 5.28753C36.7479 1.8042 33.2768 0.0625305 28.3386 0.0625305C23.4004 0.0625305 19.9294 1.8042 17.9255 5.28753C15.9215 8.7342 14.9196 13.5559 14.9196 19.7525ZM36.9805 19.7525C36.9805 22.9425 36.7479 25.6192 36.2827 27.7825C35.8533 29.9092 35.0124 31.6142 33.7599 32.8975C32.5075 34.1809 30.7004 34.8225 28.3386 34.8225C26.0127 34.8225 24.2235 34.1809 22.971 32.8975C21.7186 31.6142 20.8597 29.9092 20.3946 27.7825C19.9651 25.6192 19.7504 22.9425 19.7504 19.7525C19.7504 16.5992 19.9651 13.9592 20.3946 11.8325C20.8597 9.70587 21.7186 8.0192 22.971 6.77253C24.2235 5.4892 26.0127 4.84753 28.3386 4.84753C30.7004 4.84753 32.5075 5.4892 33.7599 6.77253C35.0124 8.0192 35.8533 9.70587 36.2827 11.8325C36.7479 13.9592 36.9805 16.5992 36.9805 19.7525Z" fill="black"/>
</svg>
