<svg width="28" height="41" viewBox="0 0 28 41" fill="none" xmlns="http://www.w3.org/2000/svg">
<path d="M1.46722 10.8079C1.46722 8.9557 1.95218 7.26381 2.92211 5.73221C3.89203 4.2006 5.3296 2.98957 7.23481 2.0991C9.14002 1.20863 11.4089 0.763397 14.0416 0.763397C16.6743 0.763397 18.9259 1.20863 20.7964 2.0991C22.7016 2.98957 24.1392 4.2006 25.1091 5.73221C26.0791 7.26381 26.564 8.9557 26.564 10.8079C26.564 12.9094 26.0098 14.7259 24.9013 16.2575C23.7928 17.7891 22.1128 18.8755 19.8611 19.5166C22.286 20.1934 24.1738 21.3688 25.5248 23.0429C26.8758 24.717 27.5513 26.7829 27.5513 29.2405C27.5513 32.8024 26.3215 35.5985 23.8621 37.6287C21.4026 39.659 18.1291 40.6741 14.0416 40.6741C9.95406 40.6741 6.68057 39.659 4.22111 37.6287C1.76166 35.5985 0.531937 32.8024 0.531937 29.2405C0.531937 26.7829 1.1901 24.717 2.50643 23.0429C3.85739 21.3688 5.74528 20.1934 8.17009 19.5166C5.91848 18.8755 4.23843 17.7891 3.12995 16.2575C2.02146 14.7259 1.46722 12.9094 1.46722 10.8079ZM6.14364 11.5024C6.14364 13.6396 6.85377 15.2958 8.27401 16.4712C9.69426 17.611 11.6168 18.1809 14.0416 18.1809C16.4664 18.1809 18.3716 17.611 19.7572 16.4712C21.1775 15.2958 21.8876 13.6396 21.8876 11.5024C21.8876 9.36531 21.1775 7.72685 19.7572 6.58705C18.337 5.41164 16.4318 4.82393 14.0416 4.82393C11.6514 4.82393 9.7289 5.41164 8.27401 6.58705C6.85377 7.72685 6.14364 9.36531 6.14364 11.5024ZM5.1564 28.9734C5.1564 31.3955 5.95312 33.2833 7.54657 34.6368C9.14002 35.9547 11.305 36.6136 14.0416 36.6136C16.7435 36.6136 18.8912 35.9369 20.4847 34.5833C22.0781 33.2298 22.8748 31.3599 22.8748 28.9734C22.8748 26.5513 22.0435 24.717 20.3808 23.4703C18.718 22.2237 16.605 21.6003 14.0416 21.6003C11.4436 21.6003 9.31322 22.2237 7.65049 23.4703C5.98776 24.717 5.1564 26.5513 5.1564 28.9734Z" fill="black"/>
</svg>
