<svg width="29" height="41" viewBox="0 0 29 41" fill="none" xmlns="http://www.w3.org/2000/svg">
<path d="M6.71752 29.453C7.05028 31.7529 7.86367 33.5235 9.1577 34.7647C10.4517 36.0059 12.2264 36.6266 14.4817 36.6266C17.5874 36.6266 19.9352 35.4401 21.525 33.0672C23.1148 30.6942 23.9097 26.934 23.9097 21.7866C23.9097 20.8009 23.8912 20.0525 23.8542 19.5414C23.3366 21.7318 22.0796 23.4841 20.0831 24.7984C18.0865 26.1126 15.7388 26.7697 13.0398 26.7697C9.1577 26.7697 6.10748 25.6198 3.88913 23.3199C1.67079 21.0199 0.561615 17.8073 0.561615 13.6821C0.561615 11.2726 1.04226 9.08224 2.00354 7.11088C2.96482 5.13952 4.42523 3.58798 6.38477 2.45627C8.38128 1.28806 10.84 0.703949 13.7608 0.703949C19.3806 0.703949 23.2257 2.41977 25.2962 5.8514C27.4036 9.24652 28.4573 13.9194 28.4573 19.87C28.4573 26.6602 27.3851 31.8442 25.2407 35.4218C23.0963 38.963 19.51 40.7336 14.4817 40.7336C10.7475 40.7336 7.80821 39.6931 5.66381 37.6122C3.55638 35.4949 2.31781 32.7751 1.94808 29.453H6.71752ZM23.3551 14.4487C23.3551 11.8202 22.5602 9.59334 20.9704 7.768C19.4176 5.94266 17.0698 5.02999 13.9271 5.02999C11.3391 5.02999 9.26862 5.79664 7.71578 7.32992C6.16294 8.8632 5.38652 10.9988 5.38652 13.7368C5.38652 16.6574 6.16294 18.9025 7.71578 20.4723C9.26862 22.0421 11.3945 22.827 14.0935 22.827C15.6464 22.827 17.1253 22.5167 18.5302 21.8961C19.9721 21.2755 21.1368 20.3263 22.0241 19.0486C22.9114 17.7708 23.3551 16.2376 23.3551 14.4487Z" fill="black"/>
</svg>
