<svg width="28" height="39" viewBox="0 0 28 39" fill="none" xmlns="http://www.w3.org/2000/svg">
<path d="M21.5236 11.3751C21.241 9.17765 20.4816 7.48594 19.2453 6.3C18.0443 5.07917 16.3664 4.46876 14.2116 4.46876C11.2091 4.46876 8.93076 5.61982 7.37652 7.92195C5.8576 10.2241 5.09814 13.8691 5.09814 18.857L5.15113 20.7929C5.68098 18.7001 6.89965 17.0432 8.80712 15.8224C10.7146 14.5667 12.9577 13.9388 15.5363 13.9388C19.2453 13.9388 22.1418 15.0376 24.2259 17.2351C26.3453 19.4325 27.405 22.502 27.405 26.4435C27.405 28.7457 26.9458 30.8385 26.0274 32.7221C25.109 34.5707 23.696 36.0532 21.7886 37.1693C19.9164 38.2506 17.585 38.7913 14.7945 38.7913C9.46061 38.7913 5.78695 37.1345 3.77351 33.8208C1.79538 30.5071 0.80632 26.0075 0.80632 20.322C0.80632 13.7644 1.86603 8.84628 3.98545 5.5675C6.14019 2.25385 9.63723 0.597015 14.4766 0.597015C18.0443 0.597015 20.7818 1.59111 22.6893 3.57931C24.6321 5.5675 25.7801 8.16611 26.1334 11.3751H21.5236ZM5.68098 25.6587C5.68098 28.205 6.42278 30.3502 7.90637 32.0942C9.42529 33.8034 11.686 34.6579 14.6885 34.6579C17.1612 34.6579 19.1393 33.9429 20.6229 32.5128C22.1065 31.0478 22.8483 29.0073 22.8483 26.3912C22.8483 23.5659 22.1065 21.4207 20.6229 19.9558C19.1393 18.4559 17.0905 17.706 14.4766 17.706C12.993 17.706 11.58 18.0024 10.2377 18.5954C8.89543 19.1884 7.8004 20.0953 6.95263 21.3161C6.10487 22.502 5.68098 23.9496 5.68098 25.6587Z" fill="black"/>
</svg>
