<svg width="28" height="41" viewBox="0 0 28 41" fill="none" xmlns="http://www.w3.org/2000/svg">
<path d="M14.34 0.843262C16.8557 0.843262 19.0199 1.28111 20.8326 2.15681C22.6454 3.03251 24.0142 4.23659 24.939 5.76907C25.8639 7.30154 26.3263 9.03469 26.3263 10.9685C26.3263 13.3767 25.6049 15.4017 24.1621 17.0437C22.7563 18.6856 20.6846 19.6708 17.947 19.9992V20.3276C20.7956 21.0573 23.0153 22.1884 24.6061 23.7209C26.2339 25.2534 27.0477 27.3696 27.0477 30.0697C27.0477 33.2441 25.9749 35.8347 23.8292 37.8415C21.6835 39.8483 18.5944 40.8517 14.562 40.8517C10.5295 40.8517 7.25551 39.8301 4.73986 37.7868C2.26121 35.707 0.79991 32.6786 0.355972 28.7014H5.35027C5.68323 31.1096 6.6081 33.0252 8.12489 34.4482C9.67867 35.8712 11.7689 36.5827 14.3955 36.5827C16.8742 36.5827 18.7794 35.9624 20.1112 34.7218C21.443 33.4448 22.1089 31.8029 22.1089 29.796C22.1089 27.3879 21.1471 25.5635 19.2233 24.3229C17.3366 23.0459 14.636 22.4073 11.1215 22.4073H9.78965V18.2478H11.1215C17.9285 18.2478 21.332 16.0038 21.332 11.5158C21.332 9.54552 20.7031 7.97656 19.4453 6.80896C18.1875 5.64136 16.4487 5.05756 14.229 5.05756C12.0093 5.05756 10.1411 5.69609 8.62432 6.97315C7.10753 8.21372 6.21965 10.0563 5.96069 12.501H1.02188C1.28084 8.85225 2.55716 6.00623 4.85084 3.96294C7.18152 1.88315 10.3446 0.843262 14.34 0.843262Z" fill="black"/>
</svg>
