<svg width="28" height="39" viewBox="0 0 28 39" fill="none" xmlns="http://www.w3.org/2000/svg">
<path d="M0.276459 35.0458C6.65116 31.0044 11.7509 26.9984 15.5757 23.0278C19.4006 19.0218 21.313 15.2994 21.313 11.8606C21.313 9.73355 20.7317 8.03189 19.5693 6.75564C18.4443 5.44394 16.6069 4.78809 14.0571 4.78809C11.4322 4.78809 9.44477 5.58575 8.09484 7.18106C6.7449 8.74092 5.99494 10.9034 5.84494 13.6687H0.782685C1.04517 9.48539 2.41386 6.27705 4.88874 4.04362C7.36362 1.77473 10.551 0.640289 14.4508 0.640289C18.1631 0.640289 21.1067 1.57975 23.2816 3.45867C25.4565 5.33759 26.544 7.99644 26.544 11.4352C26.544 14.2713 25.569 17.1606 23.6191 20.1031C21.7067 23.0101 19.2881 25.7221 16.3632 28.2391C13.4758 30.7207 10.4947 32.8301 7.41987 34.5672H27.5564V38.5555H0.276459V35.0458Z" fill="black"/>
</svg>
